<mxfile host="app.diagrams.net" modified="2021-07-01T00:38:21.348Z" agent="5.0 (Windows NT 10.0; Win64; x64) AppleWebKit/537.36 (KHTML, like Gecko) Chrome/91.0.4472.124 Safari/537.36" etag="mn5-vul7ESSbwpnLi6Tc" version="14.8.3" type="github">
  <diagram id="QkT9ZdxwsI7ch3on7weZ" name="Page-1">
    <mxGraphModel dx="1102" dy="582" grid="1" gridSize="10" guides="1" tooltips="1" connect="1" arrows="1" fold="1" page="1" pageScale="1" pageWidth="827" pageHeight="1169" math="0" shadow="0">
      <root>
        <mxCell id="0" />
        <mxCell id="1" parent="0" />
        <mxCell id="5NeR2W1uOQMNLkO1pI8r-1" value="Internet" style="ellipse;shape=cloud;whiteSpace=wrap;html=1;" vertex="1" parent="1">
          <mxGeometry x="370" y="70" width="120" height="80" as="geometry" />
        </mxCell>
        <mxCell id="5NeR2W1uOQMNLkO1pI8r-4" value="Customer" style="shape=actor;whiteSpace=wrap;html=1;" vertex="1" parent="1">
          <mxGeometry x="100" y="490" width="40" height="60" as="geometry" />
        </mxCell>
        <mxCell id="5NeR2W1uOQMNLkO1pI8r-6" value="Modem" style="whiteSpace=wrap;html=1;shape=mxgraph.basic.isocube;isoAngle=15;" vertex="1" parent="1">
          <mxGeometry x="250" y="200" width="100" height="60" as="geometry" />
        </mxCell>
        <mxCell id="5NeR2W1uOQMNLkO1pI8r-7" value="System" style="shape=cube;whiteSpace=wrap;html=1;boundedLbl=1;backgroundOutline=1;darkOpacity=0.05;darkOpacity2=0.1;" vertex="1" parent="1">
          <mxGeometry x="160" y="340" width="120" height="80" as="geometry" />
        </mxCell>
        <mxCell id="5NeR2W1uOQMNLkO1pI8r-8" value="Server" style="shape=cube;whiteSpace=wrap;html=1;boundedLbl=1;backgroundOutline=1;darkOpacity=0.05;darkOpacity2=0.1;" vertex="1" parent="1">
          <mxGeometry x="520" y="480" width="70" height="130" as="geometry" />
        </mxCell>
        <mxCell id="5NeR2W1uOQMNLkO1pI8r-9" value="Caching Server" style="shape=cube;whiteSpace=wrap;html=1;boundedLbl=1;backgroundOutline=1;darkOpacity=0.05;darkOpacity2=0.1;" vertex="1" parent="1">
          <mxGeometry x="430" y="260" width="220" height="110" as="geometry" />
        </mxCell>
        <mxCell id="5NeR2W1uOQMNLkO1pI8r-10" value="" style="endArrow=open;endFill=1;endSize=12;html=1;entryX=0.225;entryY=1.038;entryDx=0;entryDy=0;entryPerimeter=0;" edge="1" parent="1" target="5NeR2W1uOQMNLkO1pI8r-7">
          <mxGeometry width="160" relative="1" as="geometry">
            <mxPoint x="130" y="500" as="sourcePoint" />
            <mxPoint x="290" y="500" as="targetPoint" />
          </mxGeometry>
        </mxCell>
        <mxCell id="5NeR2W1uOQMNLkO1pI8r-11" value="" style="endArrow=open;endFill=1;endSize=12;html=1;entryX=0.37;entryY=0.983;entryDx=0;entryDy=0;entryPerimeter=0;" edge="1" parent="1" target="5NeR2W1uOQMNLkO1pI8r-6">
          <mxGeometry width="160" relative="1" as="geometry">
            <mxPoint x="254" y="340" as="sourcePoint" />
            <mxPoint x="414" y="340" as="targetPoint" />
          </mxGeometry>
        </mxCell>
        <mxCell id="5NeR2W1uOQMNLkO1pI8r-12" value="Connection" style="endArrow=classic;html=1;" edge="1" parent="1">
          <mxGeometry width="50" height="50" relative="1" as="geometry">
            <mxPoint x="140" y="280" as="sourcePoint" />
            <mxPoint x="260" y="310" as="targetPoint" />
          </mxGeometry>
        </mxCell>
        <mxCell id="5NeR2W1uOQMNLkO1pI8r-13" value="" style="endArrow=open;endFill=1;endSize=12;html=1;entryX=0.13;entryY=0.77;entryDx=0;entryDy=0;entryPerimeter=0;" edge="1" parent="1" target="5NeR2W1uOQMNLkO1pI8r-1">
          <mxGeometry width="160" relative="1" as="geometry">
            <mxPoint x="320" y="210" as="sourcePoint" />
            <mxPoint x="480" y="210" as="targetPoint" />
          </mxGeometry>
        </mxCell>
        <mxCell id="5NeR2W1uOQMNLkO1pI8r-14" value="" style="endArrow=open;endFill=1;endSize=12;html=1;entryX=0.25;entryY=-0.009;entryDx=0;entryDy=0;entryPerimeter=0;" edge="1" parent="1" target="5NeR2W1uOQMNLkO1pI8r-9">
          <mxGeometry width="160" relative="1" as="geometry">
            <mxPoint x="450" y="150" as="sourcePoint" />
            <mxPoint x="610" y="150" as="targetPoint" />
          </mxGeometry>
        </mxCell>
        <mxCell id="5NeR2W1uOQMNLkO1pI8r-15" value="" style="endArrow=open;endFill=1;endSize=12;html=1;entryX=0;entryY=0;entryDx=25;entryDy=0;entryPerimeter=0;" edge="1" parent="1" target="5NeR2W1uOQMNLkO1pI8r-8">
          <mxGeometry width="160" relative="1" as="geometry">
            <mxPoint x="550" y="370" as="sourcePoint" />
            <mxPoint x="710" y="370" as="targetPoint" />
          </mxGeometry>
        </mxCell>
      </root>
    </mxGraphModel>
  </diagram>
</mxfile>
